<svg xmlns="http://www.w3.org/2000/svg" style="display: none;"><symbol id="hand" viewBox="0 0 490.651 490.651"><title>hand</title><g> <g> <path d="M437.328,42.651h-128c-5.888,0-10.667,4.779-10.667,10.667s4.779,10.667,10.667,10.667h128 c5.888,0,10.667-4.779,10.667-10.667S443.216,42.651,437.328,42.651z"/> </g> </g><g> <g> <path d="M444.88,45.787L402.213,3.12c-4.16-4.16-10.923-4.16-15.083,0c-4.16,4.16-4.16,10.923,0,15.083l35.115,35.115 l-35.136,35.136c-4.16,4.16-4.16,10.923,0,15.083c2.091,2.069,4.821,3.115,7.552,3.115c2.731,0,5.461-1.045,7.552-3.115 l42.667-42.667C449.04,56.709,449.04,49.947,444.88,45.787z"/> </g> </g><g> <g> <path d="M159.995,42.651h-128c-5.888,0-10.667,4.779-10.667,10.667s4.779,10.667,10.667,10.667h128 c5.888,0,10.667-4.779,10.667-10.667S165.883,42.651,159.995,42.651z"/> </g> </g><g> <g> <path d="M47.077,53.317l35.115-35.115c4.16-4.16,4.16-10.923,0-15.083c-4.16-4.16-10.923-4.16-15.083,0L24.443,45.787 c-4.16,4.16-4.16,10.923,0,15.083l42.667,42.667c2.091,2.069,4.821,3.115,7.552,3.115c2.731,0,5.461-1.045,7.531-3.136 c4.16-4.16,4.16-10.923,0-15.083L47.077,53.317z"/> </g> </g><g> <g> <path d="M426.661,213.317c-8.768,0-16.939,2.667-23.723,7.211c-5.845-16.597-21.696-28.544-40.277-28.544 c-8.768,0-16.939,2.667-23.723,7.211c-5.845-16.597-21.696-28.544-40.277-28.544c-7.765,0-15.061,2.091-21.333,5.739v-69.739 c0-23.531-19.136-42.667-42.667-42.667c-23.531,0-42.667,19.136-42.667,42.667v181.333l-37.077-27.797 c-21.973-16.491-53.248-14.293-72.725,5.163c-12.48,12.48-12.48,32.768,0,45.248l151.915,151.936 c18.133,18.133,42.261,28.117,67.904,28.117h49.984c64.683,0,117.333-52.629,117.333-117.333V255.984 C469.328,232.453,450.192,213.317,426.661,213.317z M447.995,373.317c0,52.928-43.072,96-96,96h-49.984 c-19.968,0-38.72-7.765-52.821-21.867L97.275,295.515c-4.16-4.16-4.16-10.923,0-15.083c6.613-6.592,15.445-9.984,24.32-9.984 c7.211,0,14.464,2.24,20.544,6.805l54.123,40.597c3.243,2.432,7.595,2.795,11.179,1.003c3.605-1.813,5.888-5.504,5.888-9.536 V106.651c0-11.755,9.557-21.333,21.333-21.333s21.333,9.579,21.333,21.333v160c0,5.888,4.779,10.667,10.667,10.667 s10.667-4.779,10.667-10.667v-53.333c0-11.755,9.557-21.333,21.333-21.333s21.333,9.579,21.333,21.333v53.333 c0,5.888,4.779,10.667,10.667,10.667c5.888,0,10.667-4.779,10.667-10.667v-32c0-11.755,9.557-21.333,21.333-21.333 s21.333,9.579,21.333,21.333v32c0,5.888,4.779,10.667,10.667,10.667c5.888,0,10.667-4.779,10.667-10.667v-10.667 c0-11.755,9.557-21.333,21.333-21.333s21.333,9.579,21.333,21.333V373.317z"/> </g> </g></symbol><symbol id="facebook-logo" viewBox="0 0 96.124 96.123"><title>facebook-logo</title><path d="M72.089,0.02L59.624,0C45.62,0,36.57,9.285,36.57,23.656v10.907H24.037c-1.083,0-1.96,0.878-1.96,1.961v15.803 c0,1.083,0.878,1.96,1.96,1.96h12.533v39.876c0,1.083,0.877,1.96,1.96,1.96h16.352c1.083,0,1.96-0.878,1.96-1.96V54.287h14.654 c1.083,0,1.96-0.877,1.96-1.96l0.006-15.803c0-0.52-0.207-1.018-0.574-1.386c-0.367-0.368-0.867-0.575-1.387-0.575H56.842v-9.246 c0-4.444,1.059-6.7,6.848-6.7l8.397-0.003c1.082,0,1.959-0.878,1.959-1.96V1.98C74.046,0.899,73.17,0.022,72.089,0.02z"/></symbol><symbol id="instagram-social-network-logo-of-photo-camera" viewBox="0 0 97.395 97.395"><title>instagram-social-network-logo-of-photo-camera</title><path d="M12.501,0h72.393c6.875,0,12.5,5.09,12.5,12.5v72.395c0,7.41-5.625,12.5-12.5,12.5H12.501C5.624,97.395,0,92.305,0,84.895 V12.5C0,5.09,5.624,0,12.501,0L12.501,0z M70.948,10.821c-2.412,0-4.383,1.972-4.383,4.385v10.495c0,2.412,1.971,4.385,4.383,4.385 h11.008c2.412,0,4.385-1.973,4.385-4.385V15.206c0-2.413-1.973-4.385-4.385-4.385H70.948L70.948,10.821z M86.387,41.188h-8.572 c0.811,2.648,1.25,5.453,1.25,8.355c0,16.2-13.556,29.332-30.275,29.332c-16.718,0-30.272-13.132-30.272-29.332 c0-2.904,0.438-5.708,1.25-8.355h-8.945v41.141c0,2.129,1.742,3.872,3.872,3.872h67.822c2.13,0,3.872-1.742,3.872-3.872V41.188 H86.387z M48.789,29.533c-10.802,0-19.56,8.485-19.56,18.953c0,10.468,8.758,18.953,19.56,18.953 c10.803,0,19.562-8.485,19.562-18.953C68.351,38.018,59.593,29.533,48.789,29.533z"/></symbol><symbol id="vk" viewBox="0 0 511.962 511.962"><title>vk</title><path d="M507.399,370.471c-1.376-2.304-9.888-20.8-50.848-58.816c-42.88-39.808-37.12-33.344,14.528-102.176 c31.456-41.92,44.032-67.52,40.096-78.464c-3.744-10.432-26.88-7.68-26.88-7.68l-76.928,0.448c0,0-5.696-0.768-9.952,1.76 c-4.128,2.496-6.784,8.256-6.784,8.256s-12.192,32.448-28.448,60.032c-34.272,58.208-48,61.28-53.6,57.664 c-13.024-8.416-9.76-33.856-9.76-51.904c0-56.416,8.544-79.936-16.672-86.016c-8.384-2.016-14.528-3.36-35.936-3.584 c-27.456-0.288-50.72,0.096-63.872,6.528c-8.768,4.288-15.52,13.856-11.392,14.4c5.088,0.672,16.608,3.104,22.72,11.424 c7.904,10.72,7.616,34.848,7.616,34.848s4.544,66.4-10.592,74.656c-10.4,5.664-24.64-5.888-55.2-58.72 c-15.648-27.04-27.488-56.96-27.488-56.96s-2.272-5.568-6.336-8.544c-4.928-3.616-11.84-4.768-11.84-4.768l-73.152,0.448 c0,0-10.976,0.32-15.008,5.088c-3.584,4.256-0.288,13.024-0.288,13.024s57.28,133.984,122.112,201.536 c59.488,61.92,127.008,57.856,127.008,57.856h30.592c0,0,9.248-1.024,13.952-6.112c4.352-4.672,4.192-13.44,4.192-13.44 s-0.608-41.056,18.464-47.104c18.784-5.952,42.912,39.68,68.48,57.248c19.328,13.28,34.016,10.368,34.016,10.368l68.384-0.96 C488.583,400.807,524.359,398.599,507.399,370.471z"/></symbol><symbol id="food" viewBox="0 0 496 496"><title>food</title><path d="M485.72,299.376l-53.408-46.728c-0.648-0.568-1.368-1.04-2.08-1.512l36.712-59.656C475.488,177.6,480,161.656,480,145.36 V144c0-48.52-39.48-88-88-88c-48.52,0-88,39.48-88,88v1.36c0,4.936,0.552,9.816,1.368,14.64h-30.344 C260.128,160,248,147.872,248,132.976c0-0.824,0.36-1.6,0.976-2.144L286.352,98.8C297.568,89.192,304,75.208,304,60.44 c0-15.432-6.912-29.808-18.96-39.456L263.96,4.12C260.64,1.464,256.472,0,252.208,0h-29.792c-11.712,0-22.576,5.824-29.08,15.56 c-3.512,5.28-9.408,8.44-15.76,8.44h-6.416c-5.064,0-9.824-1.968-13.4-5.544L144.816,5.512C141.32,2.008,136.48,0,131.52,0 h-8.712C112.44,0,104,8.44,104,18.816v42.376c0,1.552-1.256,2.808-2.816,2.808H95.32c-1.16,0-2.176-0.696-2.608-1.768 l-7.952-19.88C80.296,31.2,69.656,24,57.656,24h-4.472C37.096,24,24,37.096,24,53.184C24,54.744,22.744,56,21.184,56 c-5.656,0-10.96,2.504-14.544,6.88c-3.584,4.376-5.008,10.072-3.896,15.616l4.936,24.68c0.08,0.416,0.072,0.84-0.024,1.232 l-7.104,28.376C0.184,134.272,0,135.808,0,137.328v3.728C0,160.32,15.68,176,34.944,176h22.632 c11.712,0,22.576-5.824,29.08-15.56c3.52-5.28,9.416-8.44,15.768-8.44h2.088c1.168,0,2.224,0.736,2.632,1.832l21.272,56.704 c15.752,47.264,56.136,81.336,105.384,88.912l28.312,4.448l27.048,11.592c13.872,5.944,22.84,19.544,22.84,34.648 c0,13.168-7.016,25.544-18.304,32.32c-10.416,6.24-22.328,9.544-34.472,9.544h-15.456C228.464,392,216,404.464,216,419.776 c0,10.584,5.88,20.112,15.352,24.848l34.792,17.392c0.4,0.192,0.728,0.48,0.992,0.824l17.672,23.56 c4.496,6.016,11.68,9.6,19.192,9.6h63.792C381.144,496,392,485.144,392,471.792c0-7.392-3.312-14.272-9.088-18.904l-29.28-23.424 l11.08-27.696c0.432-1.072,1.456-1.768,2.608-1.768h20.2c4.952,0,9.8-2.008,13.296-5.504l12.296-12.296 c3.784-3.784,5.776-9.008,5.488-14.344c-0.296-5.336-2.856-10.312-7.032-13.648l-22.464-17.952 c-3.248-2.608-5.104-6.48-5.104-10.648c0-7.504,6.104-13.608,13.608-13.608h2.816c3.08,0,6.096,1.064,8.496,2.984l38.176,30.544 c9.128,7.288,21.312,8.688,31.84,3.616c10.528-5.048,17.064-15.448,17.064-27.12C496,313.344,492.248,305.096,485.72,299.376z M320,144c0-39.704,32.296-72,72-72c39.704,0,72,32.296,72,72v1.36c0,13.336-3.696,26.376-10.68,37.728l-43.752,71.096 C405.792,260.328,399.216,264,392,264s-13.792-3.672-17.568-9.824L330.68,183.08c-6.984-11.344-10.68-24.384-10.68-37.72V144z M472.016,334.728c-5,2.408-10.584,1.776-14.912-1.696l-38.184-30.544c-5.24-4.184-11.808-6.488-18.496-6.488h-2.816 C381.28,296,368,309.28,368,325.608c0,9.048,4.048,17.48,11.112,23.136l22.464,17.96c0.848,0.68,1.024,1.568,1.056,2.032 c0.024,0.48-0.048,1.376-0.824,2.152l-12.296,12.296c-0.528,0.52-1.248,0.816-1.992,0.816h-20.2 c-7.736,0-14.592,4.64-17.472,11.832l-15.488,38.712l38.544,30.832c1.968,1.568,3.096,3.904,3.096,6.416 c0,4.528-3.68,8.208-8.208,8.208H304c-2.504,0-4.896-1.192-6.4-3.192l-17.672-23.56c-1.744-2.328-4.032-4.24-6.632-5.536 l-34.792-17.392c-4.008-2.016-6.504-6.056-6.504-10.544c0-6.496,5.28-11.776,11.776-11.776h15.456 c15.04,0,29.808-4.088,42.704-11.832C318.008,386.52,328,368.88,328,350.136c0-21.512-12.776-40.888-32.544-49.352l-27.04-11.592 c-1.44-0.616-2.968-1.056-4.544-1.304l-27.632-4.248c-43.296-6.664-78.8-36.608-92.744-78.448l-21.368-56.984 c-2.752-7.304-9.832-12.208-17.624-12.208h-2.088c-11.712,0-22.576,5.824-29.08,15.56c-3.512,5.28-9.408,8.44-15.76,8.44H34.944 C24.496,160,16,151.504,16,141.056l0.08-4.4l7.104-28.384c0.664-2.68,0.728-5.52,0.184-8.224L18.432,75.36 c-0.224-1.136,0.272-1.944,0.584-2.328C19.328,72.648,20.032,72,21.184,72C31.56,72,40,63.56,40,53.184 C40,45.912,45.912,40,53.184,40h4.472c5.424,0,10.224,3.256,12.24,8.288l7.952,19.88C80.728,75.36,87.584,80,95.32,80h5.864 C111.56,80,120,71.56,120,61.184V18.816c0-1.56,1.256-2.816,2.816-2.816h8.712c0.744,0,1.464,0.296,1.984,0.824l12.944,12.944 c6.6,6.6,15.376,10.232,24.712,10.232h6.416c11.712,0,22.576-5.824,29.08-15.56c3.512-5.28,9.408-8.44,15.76-8.44h29.792 c0.632,0,1.256,0.216,1.752,0.616l21.08,16.864C283.272,40.072,288,49.896,288,60.44c0,10.096-4.392,19.648-12.056,26.216 l-37.384,32.04c-4.168,3.584-6.56,8.792-6.56,14.28C232,156.704,251.296,176,275.024,176h34.696 c1.992,5.344,4.312,10.576,7.336,15.48l43.752,71.096C367.52,273.488,379.176,280,392,280c11.952,0,22.84-5.72,29.712-15.336 c0.024,0.016,0.056,0.008,0.072,0.032l53.4,46.728c3.056,2.672,4.816,6.536,4.816,10.6 C480,327.576,477.016,332.328,472.016,334.728z"/><path d="M110.528,356.416c-3.904-1.304-6.528-4.944-6.528-9.064v-17.808C104,315.464,92.536,304,78.456,304h-4.904 C59.464,304,48,315.464,48,329.544v27.992c0,2.368,0.328,4.728,0.976,7.024l9.664,33.8c4.312,15.096,18.296,25.64,34,25.64 c19.504,0,35.36-15.856,35.36-35.36v-7.992C128,369.64,120.976,359.896,110.528,356.416z M112,388.64 c0,10.672-8.688,19.36-19.36,19.36c-8.6,0-16.256-5.776-18.616-14.04l-9.656-33.776c-0.24-0.864-0.368-1.752-0.368-2.648v-27.992 c0-5.264,4.28-9.544,9.544-9.544h4.904c5.272,0,9.552,4.28,9.552,9.544v17.808c0,11.008,7.024,20.752,17.472,24.232 c3.904,1.304,6.528,4.944,6.528,9.064V388.64z"/><path d="M392,200c30.872,0,56-25.128,56-56s-25.128-56-56-56s-56,25.128-56,56S361.128,200,392,200z M392,104 c22.056,0,40,17.944,40,40c0,22.056-17.944,40-40,40c-22.056,0-40-17.944-40-40C352,121.944,369.944,104,392,104z"/><rect x="264" y="192" width="16" height="16"/><rect x="40" y="80" width="16" height="16"/><rect x="296" y="416" width="16" height="16"/></symbol><symbol id="sports" viewBox="0 0 463.002 463.002"><title>sports</title><path d="M159.501,160c-12.958,0-23.5,10.542-23.5,23.5s10.542,23.5,23.5,23.5s23.5-10.542,23.5-23.5S172.459,160,159.501,160z M159.501,192c-4.687,0-8.5-3.813-8.5-8.5s3.813-8.5,8.5-8.5s8.5,3.813,8.5,8.5S164.188,192,159.501,192z"/><path d="M231.501,160c-12.958,0-23.5,10.542-23.5,23.5s10.542,23.5,23.5,23.5s23.5-10.542,23.5-23.5S244.459,160,231.501,160z M231.501,192c-4.687,0-8.5-3.813-8.5-8.5s3.813-8.5,8.5-8.5s8.5,3.813,8.5,8.5S236.188,192,231.501,192z"/><path d="M303.501,160c-12.958,0-23.5,10.542-23.5,23.5s10.542,23.5,23.5,23.5s23.5-10.542,23.5-23.5S316.459,160,303.501,160z M303.501,192c-4.687,0-8.5-3.813-8.5-8.5s3.813-8.5,8.5-8.5s8.5,3.813,8.5,8.5S308.188,192,303.501,192z"/><path d="M255.001,255.5c0-12.958-10.542-23.5-23.5-23.5s-23.5,10.542-23.5,23.5s10.542,23.5,23.5,23.5 S255.001,268.458,255.001,255.5z M223.001,255.5c0-4.687,3.813-8.5,8.5-8.5s8.5,3.813,8.5,8.5s-3.813,8.5-8.5,8.5 S223.001,260.187,223.001,255.5z"/><path d="M210.197,132.803c1.465,1.464,3.385,2.197,5.304,2.197s3.839-0.732,5.304-2.197l10.696-10.696l10.696,10.696 c1.465,1.464,3.385,2.197,5.304,2.197s3.839-0.732,5.304-2.197c2.929-2.929,2.929-7.678,0-10.606L242.108,111.5l10.697-10.697 c2.929-2.929,2.929-7.678,0-10.606c-2.93-2.929-7.678-2.929-10.607,0l-10.696,10.696l-10.696-10.696 c-2.93-2.929-7.678-2.929-10.607,0c-2.929,2.929-2.929,7.678,0,10.606l10.697,10.697l-10.697,10.697 C207.269,125.125,207.269,129.875,210.197,132.803z"/><path d="M180.805,90.197c-2.93-2.929-7.678-2.929-10.607,0l-10.696,10.696l-10.696-10.696c-2.93-2.929-7.678-2.929-10.607,0 c-2.929,2.929-2.929,7.678,0,10.606l10.697,10.697l-10.697,10.697c-2.929,2.929-2.929,7.678,0,10.606 c1.465,1.464,3.385,2.197,5.304,2.197s3.839-0.732,5.304-2.197l10.696-10.696l10.696,10.696c1.465,1.464,3.385,2.197,5.304,2.197 s3.839-0.732,5.304-2.197c2.929-2.929,2.929-7.678,0-10.606L170.108,111.5l10.697-10.697 C183.733,97.875,183.733,93.125,180.805,90.197z"/><path d="M282.197,132.803c1.465,1.464,3.385,2.197,5.304,2.197s3.839-0.732,5.304-2.197l10.696-10.696l10.696,10.696 c1.465,1.464,3.385,2.197,5.304,2.197s3.839-0.732,5.304-2.197c2.929-2.929,2.929-7.678,0-10.606L314.108,111.5l10.697-10.697 c2.929-2.929,2.929-7.678,0-10.606c-2.93-2.929-7.678-2.929-10.607,0l-10.696,10.696l-10.696-10.696 c-2.93-2.929-7.678-2.929-10.607,0c-2.929,2.929-2.929,7.678,0,10.606l10.697,10.697l-10.697,10.697 C279.269,125.125,279.269,129.875,282.197,132.803z"/><path d="M279.501,263c48.248,0,87.5-39.252,87.5-87.5v-16.23l1.792,3.584c1.313,2.628,3.963,4.148,6.714,4.147 c1.127,0,2.271-0.255,3.349-0.793c3.704-1.852,5.206-6.357,3.354-10.062l-16-32c-0.011-0.021-0.025-0.04-0.036-0.061 c-0.146-0.285-0.307-0.562-0.487-0.825c-0.021-0.031-0.046-0.059-0.067-0.09c-0.159-0.224-0.331-0.437-0.512-0.642 c-0.054-0.061-0.108-0.121-0.164-0.18c-0.423-0.447-0.899-0.84-1.421-1.173c-0.061-0.038-0.122-0.075-0.184-0.111 c-0.233-0.139-0.473-0.267-0.722-0.381c-0.037-0.017-0.072-0.036-0.109-0.053c-0.288-0.126-0.585-0.234-0.891-0.323 c-0.053-0.016-0.107-0.027-0.16-0.041c-0.251-0.068-0.506-0.122-0.766-0.163c-0.079-0.013-0.158-0.026-0.237-0.036 c-0.312-0.04-0.628-0.067-0.951-0.067s-0.639,0.027-0.951,0.067c-0.08,0.01-0.158,0.023-0.237,0.036 c-0.26,0.042-0.516,0.096-0.766,0.163c-0.053,0.014-0.107,0.026-0.16,0.041c-0.305,0.09-0.602,0.197-0.89,0.323 c-0.037,0.016-0.073,0.036-0.11,0.053c-0.249,0.114-0.489,0.241-0.721,0.38c-0.062,0.037-0.123,0.073-0.184,0.111 c-0.521,0.332-0.998,0.726-1.421,1.173c-0.056,0.059-0.11,0.119-0.164,0.18c-0.182,0.205-0.354,0.418-0.512,0.642 c-0.022,0.031-0.046,0.059-0.067,0.09c-0.181,0.263-0.341,0.539-0.487,0.825c-0.011,0.021-0.025,0.04-0.036,0.061l-16,32 c-1.853,3.705-0.351,8.21,3.354,10.062c3.707,1.853,8.211,0.351,10.063-3.354l1.792-3.584v16.23c0,39.977-32.523,72.5-72.5,72.5 c-4.143,0-7.5,3.358-7.5,7.5S275.358,263,279.501,263z"/><path d="M439.501,320h-8.5V47.5c0-12.958-10.542-23.5-23.5-23.5h-168.5V7.5c0-4.142-3.357-7.5-7.5-7.5s-7.5,3.358-7.5,7.5V24 h-168.5c-12.958,0-23.5,10.542-23.5,23.5V320h-8.5c-4.143,0-7.5,3.358-7.5,7.5s3.357,7.5,7.5,7.5h109.177l-44.2,117.867 c-1.454,3.878,0.511,8.201,4.389,9.656c0.868,0.325,1.758,0.479,2.633,0.479c3.036,0,5.895-1.858,7.023-4.869L148.698,335h75.302 v120.5c0,4.142,3.357,7.5,7.5,7.5s7.5-3.358,7.5-7.5V335h75.302l46.175,123.133c1.129,3.011,3.986,4.869,7.023,4.869 c0.875,0,1.765-0.154,2.633-0.479c3.878-1.455,5.843-5.777,4.389-9.656L330.323,335h109.177c4.143,0,7.5-3.358,7.5-7.5 S443.644,320,439.501,320z M47.001,47.5c0-4.687,3.813-8.5,8.5-8.5h352c4.687,0,8.5,3.813,8.5,8.5V320h-369V47.5z"/></symbol><symbol id="hand-1" viewBox="0 0 463 463"><title>hand-1</title><path d="M315.5,144c-8.497,0-16.304,3.004-22.422,8.001C288.289,138.055,275.051,128,259.5,128c-8.372,0-16.07,2.919-22.146,7.785 C232.808,122.012,219.353,112,203.5,112c-7.633,0-14.705,2.329-20.5,6.273V35.5C183,15.925,167.075,0,147.5,0S112,15.925,112,35.5 v300c0,0.494,0.049,0.986,0.146,1.471l21.428,107.138C135.763,455.055,145.454,463,156.617,463H311.5 c12.958,0,23.5-10.542,23.5-23.5V281.144c9.63-6.356,16-17.267,16-29.644v-72C351,159.925,335.075,144,315.5,144z M259.5,143 c11.304,0,20.5,9.196,20.5,20.5v16v64c0,11.304-9.196,20.5-20.5,20.5s-20.5-9.196-20.5-20.5v-6.526V163.5 C239,152.196,248.196,143,259.5,143z M203.5,127c11.304,0,20.5,8.535,20.5,19.026V163.5v73.474c0,9.566-7.653,17.483-17.57,18.809 c-2.641-10.54-10.057-19.747-20.845-24.215c-0.856-0.354-1.719-0.661-2.585-0.944v-84.597C183,135.535,192.196,127,203.5,127z M147.5,15c11.304,0,20.5,9.196,20.5,20.5v110.526v83.077c-12.399,1.428-23.692,9.351-28.798,21.676 c0,0-6.042,14.584-12.202,29.455V35.5C127,24.196,136.196,15,147.5,15z M320,439.5c0,4.687-3.813,8.5-8.5,8.5H156.617 c-4.038,0-7.543-2.874-8.335-6.833L127,334.757v-9.871c0.008-1.169,0.314-6.21,1.679-9.506 c4.197-10.142,24.381-58.859,24.381-58.86c3.347-8.077,11.293-12.861,19.553-12.624c0.889,0.371,1.864,0.578,2.888,0.578 c0.352,0,0.696-0.033,1.035-0.08c1.113,0.253,2.22,0.58,3.309,1.031c10.443,4.326,15.42,16.342,11.095,26.785l-22.368,54 c-0.377,0.91-0.571,1.885-0.571,2.87v42.42c0,4.143,3.357,7.5,7.5,7.5s7.5-3.357,7.5-7.5v-40.928l21.797-52.622 c0.968-2.336,1.661-4.718,2.106-7.11c8.449-0.774,16.044-4.395,21.722-9.852C234.735,271.732,246.281,279,259.5,279 c9.725,0,18.547-3.933,24.965-10.29C290.532,279.608,302.167,287,315.5,287c1.525,0,3.025-0.108,4.5-0.295V439.5z M336,251.5 c0,11.304-9.196,20.5-20.5,20.5s-20.5-9.196-20.5-20.5v-8v-64c0-11.304,9.196-20.5,20.5-20.5s20.5,9.196,20.5,20.5V251.5z"/><path d="M143.5,95h8c4.143,0,7.5-3.357,7.5-7.5s-3.357-7.5-7.5-7.5h-8c-4.143,0-7.5,3.357-7.5,7.5S139.357,95,143.5,95z"/><path d="M143.5,167h8c4.143,0,7.5-3.357,7.5-7.5s-3.357-7.5-7.5-7.5h-8c-4.143,0-7.5,3.357-7.5,7.5S139.357,167,143.5,167z"/><path d="M199.5,223h8c4.143,0,7.5-3.357,7.5-7.5s-3.357-7.5-7.5-7.5h-8c-4.143,0-7.5,3.357-7.5,7.5S195.357,223,199.5,223z"/><path d="M255.5,231h8c4.143,0,7.5-3.357,7.5-7.5s-3.357-7.5-7.5-7.5h-8c-4.143,0-7.5,3.357-7.5,7.5S251.357,231,255.5,231z"/><path d="M319.5,232h-8c-4.143,0-7.5,3.357-7.5,7.5s3.357,7.5,7.5,7.5h8c4.143,0,7.5-3.357,7.5-7.5S323.643,232,319.5,232z"/><path d="M303.5,408H295v-80.5c0-4.143-3.357-7.5-7.5-7.5s-7.5,3.357-7.5,7.5v8.5h-8.5c-4.143,0-7.5,3.357-7.5,7.5 s3.357,7.5,7.5,7.5h8.5v57h-8.5c-4.143,0-7.5,3.357-7.5,7.5s3.357,7.5,7.5,7.5h32c4.143,0,7.5-3.357,7.5-7.5S307.643,408,303.5,408 z"/><path d="M255.499,375c4.143,0,7.5-3.357,7.5-7.5s-3.357-7.5-7.5-7.5h-8.5v-8.5c0-4.143-3.357-7.5-7.5-7.5s-7.5,3.357-7.5,7.5v8.5 h-9v-8.5c0-4.143-3.357-7.5-7.5-7.5s-7.5,3.357-7.5,7.5v8.5h-8.5c-4.143,0-7.5,3.357-7.5,7.5s3.357,7.5,7.5,7.5h8.5v9h-8.5 c-4.143,0-7.5,3.357-7.5,7.5s3.357,7.5,7.5,7.5h8.5v8.5c0,4.143,3.357,7.5,7.5,7.5s7.5-3.357,7.5-7.5V399h9v8.5 c0,4.143,3.357,7.5,7.5,7.5s7.5-3.357,7.5-7.5V399h8.5c4.143,0,7.5-3.357,7.5-7.5s-3.357-7.5-7.5-7.5h-8.5v-9H255.499z M231.999,384h-9v-9h9V384z"/></symbol><symbol id="camping" viewBox="0 0 424.553 424.553"><title>camping</title><path d="M125.922,352.279c-12.315,0-22.335,10.019-22.335,22.334s10.02,22.335,22.335,22.335s22.335-10.02,22.335-22.335 S138.238,352.279,125.922,352.279z M125.922,381.948c-4.045,0-7.335-3.291-7.335-7.335s3.29-7.334,7.335-7.334 c4.045,0,7.335,3.29,7.335,7.334S129.967,381.948,125.922,381.948z"/><path d="M318.204,367.113h-26.205V232.188c0-28.844-23.466-52.31-52.31-52.31h-68.41c-84.866,0-153.91,69.044-153.91,153.91v40.83 c0,4.142,3.357,7.5,7.5,7.5h51.678c3.631,23.989,24.388,42.435,49.375,42.435s45.743-18.446,49.375-42.435l120.801-0.005v34.94 c0,4.142,3.357,7.5,7.5,7.5s7.5-3.358,7.5-7.5v-34.94h7.106c4.143,0,7.5-3.358,7.5-7.5S322.347,367.113,318.204,367.113z M125.922,409.553c-19.266,0-34.939-15.674-34.939-34.94c0-19.266,15.674-34.939,34.939-34.939s34.939,15.674,34.939,34.939 C160.862,393.879,145.188,409.553,125.922,409.553z M276.999,367.119H175.298c-3.627-23.994-24.386-42.445-49.376-42.445 s-45.749,18.451-49.376,42.445H32.369v-33.33c0-76.595,62.314-138.91,138.91-138.91h68.41c20.572,0,37.31,16.737,37.31,37.31 V367.119z"/><path d="M405.954,317.028l-50.719-77.291h28.7c2.756,0,5.29-1.512,6.6-3.937s1.183-5.373-0.329-7.678l-42.97-65.483h17.938 c2.756,0,5.29-1.512,6.6-3.937s1.183-5.373-0.329-7.678L332.628,91.87h20.082c2.756,0,5.29-1.512,6.6-3.937 s1.183-5.374-0.329-7.678l-50.441-76.87C307.153,1.272,304.796,0,302.269,0s-4.884,1.272-6.271,3.385l-50.441,76.87 c-1.512,2.304-1.639,5.252-0.329,7.678s3.844,3.937,6.6,3.937h20.083l-38.817,59.154c-1.512,2.304-1.639,5.252-0.329,7.678 s3.844,3.937,6.6,3.937h17.938l-2.119,3.23c-2.272,3.463-1.308,8.113,2.156,10.385c3.462,2.272,8.111,1.307,10.385-2.156 l9.741-14.845c1.512-2.304,1.639-5.252,0.329-7.678s-3.844-3.937-6.6-3.937h-17.938l38.817-59.154 c1.512-2.304,1.639-5.252,0.329-7.678s-3.844-3.937-6.6-3.937h-20.083l36.55-55.7l36.55,55.7h-20.082 c-2.756,0-5.29,1.512-6.6,3.937s-1.183,5.374,0.329,7.678l38.816,59.154h-17.938c-2.756,0-5.29,1.512-6.6,3.937 s-1.183,5.374,0.329,7.678l42.97,65.483h-28.7c-2.756,0-5.29,1.512-6.6,3.937s-1.183,5.374,0.329,7.678l50.719,77.291h-76.194 c-4.143,0-7.5,3.358-7.5,7.5s3.357,7.5,7.5,7.5h90.086c2.756,0,5.29-1.512,6.6-3.937S407.466,319.333,405.954,317.028z"/><path d="M27.035,248.202c1.269,0.833,2.695,1.23,4.107,1.23c2.442,0,4.837-1.192,6.277-3.386l50.591-77.098 c1.512-2.304,1.639-5.252,0.329-7.678s-3.844-3.937-6.6-3.937H63.803l38.816-59.154c1.512-2.304,1.639-5.252,0.329-7.678 s-3.844-3.937-6.6-3.937H76.267l36.55-55.7l36.55,55.7h-20.083c-2.756,0-5.29,1.512-6.6,3.937s-1.183,5.374,0.329,7.678 l38.817,59.154h-17.938c-4.143,0-7.5,3.358-7.5,7.5s3.357,7.5,7.5,7.5h31.83c2.756,0,5.29-1.512,6.6-3.937s1.183-5.374-0.329-7.678 l-38.817-59.154h20.083c2.756,0,5.29-1.512,6.6-3.937s1.183-5.374-0.329-7.678l-50.441-76.87c-1.387-2.113-3.743-3.385-6.271-3.385 s-4.884,1.272-6.271,3.385l-50.441,76.87c-1.512,2.304-1.639,5.252-0.329,7.678s3.844,3.937,6.6,3.937h20.082l-38.816,59.154 c-1.512,2.305-1.639,5.252-0.329,7.678s3.844,3.937,6.6,3.937h17.937l-42.97,65.483C22.607,241.28,23.572,245.929,27.035,248.202z"/><path d="M168.605,226.562h-49.497c-28.12,0-50.998,22.877-50.998,50.998c0,4.142,3.357,7.5,7.5,7.5h92.995 c4.143,0,7.5-3.358,7.5-7.5v-43.498C176.105,229.92,172.747,226.562,168.605,226.562z M161.105,270.06H83.896 c3.459-16.262,17.934-28.498,35.212-28.498h41.997V270.06z"/><path d="M255.601,226.562h-53.564c-4.143,0-7.5,3.358-7.5,7.5v108.527c0,4.142,3.357,7.5,7.5,7.5h53.564c4.143,0,7.5-3.358,7.5-7.5 V234.062C263.101,229.92,259.743,226.562,255.601,226.562z M248.101,335.089h-38.564v-93.527h38.564V335.089z"/></symbol><symbol id="handshake" viewBox="0 0 512.003 512.003"><title>handshake</title><g> <g> <path d="M509.605,171.075l-99.3-99.301c-3.193-3.194-8.37-3.194-11.565,0l-49.65,49.65c-1.533,1.533-2.394,3.613-2.394,5.782 c0,2.169,0.861,4.249,2.394,5.782l4.953,4.953l-11.382,11.38c-7.389,7.386-18.854,9.402-28.528,5.011 c-9.07-4.117-19.153-6.292-29.161-6.292c-11.883,0-23.496,2.983-33.814,8.633c-4.303-1.06-8.719-1.603-13.179-1.603 c-6.45,0-12.785,1.113-18.829,3.31c-9.651,3.506-19.996,1.333-27.003-5.672L171.71,132.27l2.434-2.434 c1.533-1.533,2.394-3.613,2.394-5.782c0-2.169-0.861-4.249-2.394-5.782l-49.65-49.65c-3.195-3.194-8.371-3.194-11.565,0 L2.395,179.156c-3.193,3.194-3.193,8.371,0,11.564l49.649,49.65c1.534,1.534,3.613,2.395,5.783,2.395s4.248-0.861,5.783-2.395 l2.961-2.961l14.414,14.414c3.637,3.637,6.048,8.178,6.971,13.131c4.786,25.683,17.086,49.032,35.57,67.526l2.715,2.715 c-5.214,5.491-8.082,12.645-8.082,20.245c0,7.861,3.062,15.252,8.62,20.811c5.738,5.738,13.273,8.606,20.811,8.606 c0.491,0,0.98-0.013,1.471-0.038c-0.398,8.019,2.458,16.17,8.568,22.282c5.559,5.559,12.95,8.62,20.811,8.62 c0.219,0,0.437-0.011,0.656-0.016c-0.168,7.749,2.691,15.552,8.591,21.453c5.559,5.56,12.95,8.62,20.812,8.62 c7.861,0,15.251-3.062,20.811-8.62c0.468-0.468,0.909-0.952,1.34-1.442c2.895,1.009,5.957,1.546,9.052,1.546 c7.353,0,14.261-2.865,19.441-8.062c2.757-2.756,4.849-5.998,6.211-9.529l0.837,0.837c5.359,5.359,12.398,8.039,19.437,8.039 c7.039,0,14.078-2.68,19.437-8.039c2.848-2.848,4.988-6.211,6.344-9.878c4.797,3.489,10.476,5.236,16.158,5.236 c7.039,0,14.082-2.679,19.446-8.036c5.191-5.191,8.05-12.097,8.05-19.445c0-2.22-0.266-4.397-0.773-6.502 c5.237-1.064,10.049-3.635,13.91-7.501c5.191-5.191,8.05-12.094,8.05-19.437c0-5.785-1.782-11.292-5.073-15.91l6.56-6.56 c18.699-18.708,31.052-42.35,35.725-68.371c0.783-4.357,2.941-8.404,6.243-11.707l24.398-24.398l4.289,4.289 c1.597,1.597,3.69,2.395,5.783,2.395c2.092,0,4.186-0.798,5.783-2.395l49.65-49.65c1.533-1.533,2.394-3.613,2.394-5.782 S511.138,172.609,509.605,171.075z M57.827,223.025l-38.086-38.086L118.71,85.97l38.087,38.086L57.827,223.025z M156.836,364.689 c-5.097,5.096-13.392,5.098-18.493,0c-2.47-2.471-3.83-5.754-3.83-9.247c0-3.492,1.361-6.776,3.831-9.246 c2.549-2.549,5.896-3.824,9.245-3.824c3.348,0,6.698,1.275,9.246,3.824C161.933,351.294,161.933,359.59,156.836,364.689z M187.684,395.537c-2.468,2.471-5.751,3.83-9.246,3.83c-3.492,0-6.776-1.361-9.245-3.83c-5.099-5.098-5.099-13.394,0-18.493 c2.549-2.549,5.896-3.824,9.246-3.824c3.347,0,6.697,1.275,9.245,3.824C192.784,382.142,192.784,390.439,187.684,395.537z M217.742,425.594c-2.47,2.47-5.753,3.83-9.245,3.83c-3.493,0-6.777-1.361-9.246-3.83c-5.099-5.098-5.099-13.394,0-18.493 c2.549-2.549,5.896-3.824,9.246-3.824c3.347,0,6.697,1.275,9.245,3.824C222.841,412.2,222.841,420.496,217.742,425.594z M356.63,362.822c-2.102,2.104-4.897,3.263-7.869,3.263s-5.767-1.159-7.873-3.268l-79.33-79.312 c-3.196-3.193-8.372-3.192-11.565,0.002c-3.192,3.193-3.191,8.371,0.002,11.564l85.451,85.442c2.103,2.102,3.26,4.898,3.26,7.872 c0,2.98-1.158,5.779-3.257,7.878c-4.347,4.343-11.416,4.344-15.756,0.003l-14.416-14.416c-0.08-0.083-0.158-0.167-0.241-0.249 c-0.024-0.024-0.051-0.045-0.076-0.069l-66.267-66.267c-3.195-3.193-8.371-3.193-11.565,0c-3.194,3.193-3.194,8.371,0,11.564 l66.48,66.479c2.032,2.083,3.151,4.839,3.151,7.763c0,2.974-1.159,5.77-3.261,7.872c-4.338,4.341-11.401,4.341-15.743,0 l-72.085-72.086c-3.195-3.194-8.371-3.194-11.565,0c-3.194,3.193-3.194,8.371,0,11.564l53.434,53.435 c0.015,0.015,0.027,0.032,0.043,0.046c2.101,2.097,3.257,4.888,3.257,7.859c0,2.973-1.158,5.769-3.269,7.88 c-2.099,2.104-4.893,3.263-7.87,3.263c-0.719,0-1.422-0.074-2.11-0.204c1.323-8.913-1.436-18.32-8.282-25.167 c-5.559-5.558-12.95-8.62-20.811-8.62c-0.219,0-0.437,0.011-0.656,0.016c0.168-7.749-2.69-15.552-8.591-21.453 c-5.56-5.558-12.95-8.62-20.812-8.62c-0.492,0-0.981,0.012-1.469,0.036c0.393-8.014-2.463-16.158-8.57-22.266 c-7.434-7.433-17.884-10.044-27.444-7.847l-5.864-5.864c-16.14-16.147-26.878-36.535-31.057-58.96 c-1.531-8.213-5.502-15.717-11.483-21.699l-14.415-14.415l82.01-82.01l20.438,20.438c7.856,7.856,18.552,12.06,29.507,12.06 c4.906,0,9.867-0.844,14.646-2.581c2.318-0.843,4.715-1.448,7.144-1.832l-50.632,50.633c-6.195,6.194-9.607,14.43-9.607,23.191 c0,8.76,3.412,16.996,9.606,23.19c6.394,6.394,14.79,9.59,23.19,9.589c8.398,0,16.797-3.198,23.192-9.589l25.43-25.43l6.883,6.888 c0.002,0.002,0.003,0.003,0.005,0.005l0.286,0.286l0.275,0.275c0.001,0.001,0.003,0.003,0.005,0.004l0.005,0.005 c0.079,0.078,0.156,0.152,0.233,0.226l95.881,95.881c2.103,2.102,3.26,4.898,3.26,7.872 C359.893,357.921,358.736,360.717,356.63,362.822z M408.137,240.834c-5.674,5.675-9.4,12.723-10.774,20.381 c-4.08,22.72-14.867,43.364-31.193,59.698l-6.284,6.285l-51.731-51.731c1.124,0.083,2.253,0.138,3.39,0.138 c5.238,0,10.598-0.918,15.934-3.101c4.18-1.71,6.182-6.485,4.472-10.664c-1.71-4.179-6.481-6.182-10.664-4.472 c-21.046,8.611-46.278-15.12-49.087-17.855c-0.047-0.046-0.094-0.091-0.142-0.135l-0.29-0.29 c-0.001-0.001-0.002-0.001-0.003-0.002l-0.253-0.252c-0.001-0.001-0.003-0.003-0.005-0.004l-6.884-6.889l7.806-7.807 c3.195-3.194,3.195-8.371,0.001-11.565c-3.194-3.192-8.371-3.193-11.564,0l-13.57,13.57c-0.005,0.005-0.011,0.01-0.016,0.015 c-0.005,0.005-0.01,0.011-0.015,0.016l-31.2,31.2c-6.412,6.411-16.842,6.409-23.252,0c-3.105-3.105-4.815-7.234-4.815-11.626 c0-4.392,1.71-8.521,4.816-11.626l53.852-53.854c2.996-2.995,6.326-5.63,9.905-7.837c8.503-5.256,18.324-8.034,28.401-8.034 c7.693,0,15.439,1.67,22.403,4.831c15.842,7.188,34.671,3.839,46.851-8.338l11.383-11.381l66.929,66.929L408.137,240.834z M454.172,214.944l-87.736-87.736l38.087-38.086l87.736,87.736L454.172,214.944z"/> </g> </g><g> <g> <circle cx="462.41" cy="183.11" r="8.177"/> </g> </g><g> <g> <circle cx="53.567" cy="191.189" r="8.177"/> </g> </g></symbol><symbol id="plan" viewBox="0 0 512 512"><title>plan</title><g> <g> <rect x="96" y="362.67" width="42.667" height="21.333"/> </g> </g><g> <g> <rect x="96" y="405.33" width="64" height="21.333"/> </g> </g><g> <g> <path d="M502.402,456.139l-118.4-118.414V74.667c0-17.673-14.327-32-32-32H137.6C132.658,18.323,111.137,0,85.335,0 S38.013,18.323,33.071,42.667h-1.069c-17.673,0-32,14.327-32,32V480c0,17.673,14.327,32,32,32h320c17.673,0,32-14.327,32-32 v-49.73l72.139,72.13c6.128,6.156,14.46,9.612,23.147,9.6c8.682-0.001,17.007-3.453,23.142-9.596 C515.198,489.621,515.186,468.907,502.402,456.139z M85.335,21.333c13.932,0,25.778,8.906,30.172,21.333H55.164 C59.557,30.239,71.403,21.333,85.335,21.333z M362.669,480c0,5.891-4.776,10.667-10.667,10.667h-320 c-5.891,0-10.667-4.776-10.667-10.667V74.667C21.335,68.776,26.111,64,32.002,64h85.333v117.333 c0,5.891-4.776,10.667-10.667,10.667c-5.891,0-10.667-4.776-10.667-10.667v-96H74.669v96c0,17.673,14.327,32,32,32 s32-14.327,32-32V64h213.333c5.891,0,10.667,4.776,10.667,10.667V316.39l-32-32.004V96c0-5.891-4.776-10.667-10.667-10.667h-160 v21.333h149.333V265.38l-59.232-29.55c-3.007-1.507-6.549-1.507-9.556,0c-0.572,0.286-1.099,0.625-1.595,0.994l-0.017-0.023 l-30.272,22.677l-17.067-59.733c-0.498-1.747-1.433-3.338-2.718-4.622c-4.167-4.165-10.92-4.163-15.085,0.003L144.919,224H64.002 c-5.891,0-10.667,4.776-10.667,10.667v224c0,5.891,4.776,10.667,10.667,10.667h256c5.891,0,10.667-4.776,10.667-10.667v-81.724 l32,31.996V480z M279.447,289.718l-10.282-20.545l20.551,10.276L279.447,289.718z M309.335,355.611V448H74.669V245.333h74.667 c2.822,0.002,5.53-1.114,7.531-3.104l19.2-19.2l16.341,57.227c0.358,1.256,0.943,2.437,1.727,3.481 c3.536,4.712,10.222,5.665,14.934,2.129l32.422-24.316l25.487,50.983l0.027-0.013c0.498,0.989,1.153,1.918,1.978,2.744 L309.335,355.611z M291.607,307.723l16.117-16.117l140.908,140.907l-16.117,16.117L291.607,307.723z M487.341,487.339 c-4.451,4.451-11.667,4.451-16.117,0L447.6,463.715l16.117-16.117l23.623,23.623C491.792,475.672,491.792,482.888,487.341,487.339 z"/> </g> </g></symbol><symbol id="trophy" viewBox="0 0 512 512"><title>trophy</title><g> <g> <path d="M511.982,97.701c-0.51-43.455-22.748-67.388-62.619-67.388c-15.432,0-30.302,3.592-40.023,6.589 c0.968-17.762,0.983-28.726,0.983-29.271l0.001-7.604H101.683v7.603c0,0.26,0.026,11.397,1.005,29.281 c-9.72-2.999-24.604-6.598-40.051-6.598c-39.87,0-62.109,23.932-62.619,67.388c-0.502,42.75,9.248,80.804,28.977,113.107 c19.37,31.715,44.128,50.826,61.487,61.271c27.803,16.732,55.59,20.244,74.006,20.244c4.54,0,8.914-0.214,13.005-0.636 c0.271-0.028,0.522-0.06,0.787-0.089c8.904,9.589,18.503,17.27,28.76,22.978c7.561,4.207,12.82,11.544,14.622,19.977 c-10.195,3.173-17.618,12.698-17.618,23.923c0,11.477,7.763,21.17,18.31,24.12v31.91h-41.142v33.301h-40.6v64.167h230.781v-64.167 h-40.6v-33.301h-41.142v-31.91c10.548-2.951,18.311-12.643,18.311-24.12c0-11.226-7.423-20.75-17.618-23.923 c1.802-8.433,7.06-15.769,14.622-19.977c10.232-5.693,19.897-13.416,28.779-22.974c3.147,0.349,7.866,0.72,13.766,0.72 c0.002,0,0.001,0,0.004,0c18.414,0,46.2-3.514,74.001-20.244c17.358-10.446,42.117-29.556,61.487-61.271 C502.735,178.505,512.484,140.45,511.982,97.701z M394.992,15.233c-0.068,2.781-0.176,6.277-0.342,10.369H117.387 c-0.172-4.091-0.287-7.592-0.361-10.369H394.992z M405.334,85.046c10.302-3.429,23.654-6.887,35.615-6.887 c10.029,0,17.25,2.45,21.463,7.282c4.842,5.554,6.403,14.884,4.637,27.734c-7.353,53.526-30.562,95.308-65.354,117.647 c-12.119,7.782-25.171,10.997-36.109,12.139C388.723,194.33,399.921,133.314,405.334,85.046z M114.495,138.009 c7.479,40.115,17.805,74.563,30.693,102.386c0.399,0.864,0.805,1.715,1.209,2.566c-10.934-1.145-23.978-4.359-36.092-12.137 c-34.791-22.34-58.001-64.121-65.354-117.647c-1.765-12.851-0.205-22.182,4.638-27.734c4.213-4.832,11.435-7.281,21.463-7.281 c11.971,0,25.335,3.463,35.641,6.894C108.534,101.518,111.051,119.537,114.495,138.009z M164.488,277.117 c-16.488,0-41.353-3.135-66.164-18.066C72.949,243.781,14.054,197.507,15.224,97.88c0.414-35.233,15.923-52.36,47.413-52.36 c16.841,0,33.474,5.077,41.077,7.755c0.379,5.101,0.804,10.217,1.274,15.312c-10.335-3.036-22.512-5.634-33.936-5.634 c-14.618,0-25.695,4.203-32.925,12.493c-7.859,9.013-10.632,22.403-8.242,39.798c4.094,29.801,12.65,56.141,25.431,78.287 c12.201,21.142,27.938,37.994,46.772,50.086c18.396,11.813,38.293,14.792,52.486,15.077c0.048,0.084,0.097,0.164,0.145,0.247 c0.778,1.363,1.564,2.703,2.358,4.026c0.247,0.413,0.496,0.823,0.745,1.232c0.757,1.244,1.52,2.476,2.291,3.683 c0.29,0.454,0.584,0.897,0.876,1.347c0.525,0.807,1.053,1.607,1.585,2.398c0.514,0.765,1.03,1.522,1.549,2.271 c0.509,0.733,1.019,1.462,1.533,2.181c0.241,0.338,0.478,0.689,0.719,1.023C165.763,277.112,165.134,277.117,164.488,277.117z M356.188,463.015v33.753H155.82v-33.753h25.393h149.581H356.188z M289.653,429.714h25.934v18.094H196.42v-18.094h25.935H289.653z M237.561,414.507v-30.982h36.885v30.982H237.561z M292.757,358.476c0,5.427-4.416,9.842-9.842,9.842h-53.822 c-5.427,0-9.842-4.415-9.842-9.842s4.415-9.842,9.842-9.842h53.822C288.342,348.634,292.757,353.049,292.757,358.476z M330.791,271.552c-0.084,0.109-0.168,0.218-0.252,0.327c-0.748,0.968-1.502,1.912-2.26,2.843 c-0.186,0.227-0.369,0.458-0.556,0.684c-0.833,1.012-1.673,2.002-2.517,2.968c-0.041,0.046-0.079,0.094-0.12,0.14 c-8.479,9.673-17.735,17.334-27.512,22.774c-12.051,6.704-20.245,18.611-22.499,32.139h-38.142 c-2.255-13.529-10.449-25.435-22.5-32.139c-9.436-5.249-17.958-12.266-25.657-20.651l-1.86-2.122 c-7.56-8.622-14.686-19.068-21.179-31.045l-1.989-3.671c-32.697-63.177-42.587-154.488-45.569-202.991h275.705 c-0.127,2.11-0.266,4.289-0.42,6.552c-0.007,0.105-0.015,0.213-0.022,0.318c-0.168,2.452-0.348,4.911-0.539,7.372 c-0.005,0.072-0.011,0.144-0.016,0.217c-0.608,7.8-1.328,15.629-2.149,23.365l-0.497,4.678 c-5.525,49.528-17.194,112.625-41.801,160.153l-2.173,4.006C341.432,256.385,336.246,264.451,330.791,271.552z M413.677,259.051 c-24.813,14.932-49.673,18.066-66.16,18.066c-0.001,0-0.003,0-0.004,0c-0.647,0-1.276-0.005-1.889-0.015 c0.01-0.014,0.02-0.029,0.03-0.043c0.987-1.362,1.959-2.744,2.916-4.145c0.117-0.171,0.232-0.346,0.349-0.517 c0.809-1.192,1.606-2.4,2.394-3.62c0.203-0.313,0.406-0.627,0.607-0.942c0.872-1.369,1.735-2.747,2.581-4.149 c0.133-0.219,0.262-0.444,0.394-0.665c0.693-1.158,1.378-2.327,2.054-3.507c0.158-0.276,0.321-0.54,0.48-0.818 c14.193-0.285,34.09-3.264,52.486-15.077c18.834-12.094,34.571-28.946,46.772-50.086c12.78-22.146,21.336-48.486,25.431-78.287 c2.388-17.396-0.384-30.786-8.242-39.798c-7.229-8.291-18.307-12.494-32.925-12.494c-11.423,0-23.602,2.596-33.936,5.633 c0.479-5.195,0.89-10.178,1.242-14.914c0.01-0.132,0.021-0.265,0.031-0.396c7.605-2.679,24.237-7.755,41.077-7.755 c31.49,0,46.999,17.127,47.414,52.358C497.945,197.507,439.052,243.78,413.677,259.051z"/> </g> </g><g> <g> <path d="M192.356,246.237l-12.7,8.367c4.336,6.583,8.996,12.564,13.851,17.776l11.128-10.366 C200.358,257.423,196.227,252.114,192.356,246.237z"/> </g> </g><g> <g> <path d="M159.716,161.922l-14.826,3.382c7.292,31.965,17.027,58.799,28.933,79.756l13.222-7.512 C175.873,217.883,166.678,192.439,159.716,161.922z"/> </g> </g><g> <g> <polygon points="443.666,333.509 443.655,318.302 430.818,318.31 430.809,305.473 415.602,305.483 415.611,318.321 402.774,318.33 402.784,333.537 415.621,333.528 415.63,346.364 430.837,346.354 430.828,333.517 "/> </g> </g><g> <g> <polygon points="112.785,412.475 112.769,397.268 101.997,397.279 101.986,386.506 86.779,386.522 86.79,397.294 76.016,397.305 76.033,412.512 86.805,412.501 86.816,423.275 102.023,423.259 102.012,412.486 "/> </g> </g><g> <g> <rect x="48.845" y="288.161" width="14.345" height="15.207"/> </g> </g><g> <g> <rect x="141.039" y="333.153" width="14.345" height="15.207"/> </g> </g><g> <g> <rect x="372.254" y="378.905" width="14.345" height="15.207"/> </g> </g></symbol><symbol id="people" viewBox="0 0 496 496"><title>people</title><g> <circle style="fill:#00a75a;" cx="231.968" cy="64" r="24"/> <path style="fill:#00a75a;" d="M262.888,96H256h-48h-6.888C191.664,96,184,103.664,184,113.112V164c0,6.624,5.376,12,12,12 s12-5.376,12-12v12l-7.952,87.432c-0.032,0.376-0.048,0.76-0.048,1.144v2.832c0,6.96,5.64,12.6,12.6,12.6 c6.472,0,11.888-4.904,12.536-11.344L232,200.008l6.864,68.656c0.648,6.44,6.064,11.344,12.536,11.344c6.96,0,12.6-5.64,12.6-12.6 v-2.832c0-0.384-0.016-0.76-0.048-1.144L256,176v-12c0,6.624,5.376,12,12,12s12-5.376,12-12v-50.888 C280,103.664,272.336,96,262.888,96z"/> </g><g> <path style="fill:#00a75a;" d="M464,233.76V0H0v320h368v176h96V374.528c2.512,0.896,5.184,1.472,8,1.472c13.232,0,24-10.768,24-24 v-75.752C496,256.104,482.456,239.088,464,233.76z M16,304V16h432v132.32c-8.504-7.632-19.696-12.32-32-12.32 c-26.472,0-48,21.528-48,48s21.528,48,48,48c12.296,0,23.496-4.688,32-12.328V232h-32h-31.16 c-26.944-13.752-46.592-41.68-53.872-53.208c-4.272-6.76-11.616-10.792-19.656-10.792C298.456,168,288,178.464,288,191.312 c0,7.624,2.232,15.072,6.448,21.544c11.512,17.672,36.024,48.904,73.552,65.056V304H16z M448,184c0,17.648-14.352,32-32,32 s-32-14.352-32-32s14.352-32,32-32C433.64,152,448,166.352,448,184z M480,352c0,4.416-3.592,8-8,8s-8-3.584-8-8v-80h-16v80v128h-24 V368h-16v112h-24V267.008l-5.16-1.96c-37.56-14.288-62.16-47.368-70.992-60.92c-2.512-3.872-3.848-8.304-3.848-12.816 c0-4.032,3.28-7.312,7.312-7.312c2.52,0,4.808,1.248,6.128,3.336c10.136,16.04,31.688,45.16,62.04,59.864l1.648,0.8H416h35.752 C467.328,248,480,260.672,480,276.248L480,352L480,352z"/> <rect x="303.968" y="40" style="fill:#00a75a;" width="96" height="16"/> <rect x="415.968" y="40" style="fill:#00a75a;" width="16" height="16"/> <rect x="31.968" y="40" style="fill:#00a75a;" width="96" height="16"/> <rect x="143.968" y="40" style="fill:#00a75a;" width="16" height="16"/> <rect x="31.968" y="264" style="fill:#00a75a;" width="96" height="16"/> <rect x="143.968" y="264" style="fill:#00a75a;" width="16" height="16"/> <polygon style="fill:#00a75a;" points="88,80 72,80 72,101.408 157.024,135.424 162.968,120.568 88,90.584 "/> <polygon style="fill:#00a75a;" points="392,101.408 392,80 376,80 376,90.584 301.024,120.568 306.968,135.424 "/> <polygon style="fill:#00a75a;" points="72,218.048 72,240 88,240 88,229.952 162.296,207.664 157.704,192.336 "/> </g></symbol><symbol id="coach" viewBox="0 0 512 512"><title>coach</title><g> <g> <path d="M359.358,380.627c-2.223-1.178-10.404-5.564-19.403-11.039c-12.832-7.832-19.641-13.123-23.254-16.527v-25.654 c32.077-18.339,54.011-51.244,61.022-91.521c18.171-5.203,33.988-22.26,33.988-37.948c0-15.88-11.938-26.419-31.67-28.602v-0.429 h31.67v-23.753c0-7.81-3.035-15.08-8.547-20.484c-5.404-5.512-12.674-8.547-20.484-8.547h-2.639V65.979l-0.033-0.717 c-0.044-0.492-0.512-4.994-3.114-11.353c-3.331-8.142-8.792-15.986-15.793-22.682C339.439,10.506,304.077,0,256,0 s-83.439,10.506-105.101,31.227c-7.001,6.697-12.462,14.54-15.793,22.682c-2.601,6.358-3.069,10.861-3.114,11.353l-0.033,0.359 v50.503h-2.639c-16.008,0-29.031,13.023-29.031,29.031v23.753h31.67v0.429c-19.733,2.183-31.67,12.722-31.67,28.602 c0,15.688,15.817,32.746,33.988,37.949c7.017,40.292,28.956,73.196,61.022,91.522v25.653c-3.614,3.404-10.422,8.693-23.244,16.52 c-9.01,5.481-17.227,9.886-19.43,11.054C49.734,414.024,47.548,474.978,47.506,477.561L47.505,512h416.99v-34.353 C464.48,475.047,462.947,413.71,359.358,380.627z M322.6,377.323l-58.683,46.947v-34.177 c20.927-2.623,37.008-15.025,45.135-22.679C312.657,370.428,317.193,373.742,322.6,377.323z M395.876,197.938 c0,6.467-6.996,15.272-16.116,20.132c0.174-3.129,0.281-32.819,0.281-32.819C394.152,187.229,395.876,194.526,395.876,197.938z M147.794,66.445c0.566-3.878,9.527-50.61,108.206-50.61c29.619,0,69.834,4.504,93.216,25.955 c12.563,11.526,14.718,22.862,14.99,24.669v49.665h-36.948v-63.34H184.742v63.34h-36.948V66.445z M311.423,68.619v47.505H200.577 V68.619H311.423z M116.124,197.938c0-3.412,1.724-10.709,15.835-12.687c0,0,0.107,29.691,0.281,32.819 C123.12,213.209,116.124,204.405,116.124,197.938z M116.124,153.072v-7.918c0-7.277,5.919-13.196,13.196-13.196H382.68 c3.534,0,6.806,1.361,9.211,3.832l0.153,0.153c2.471,2.405,3.832,5.676,3.832,9.211v7.918H116.124z M149.089,228.189 c-0.859-6.112-1.295-12.738-1.295-19.695v-39.588h216.412v39.588c0,6.957-0.436,13.582-1.297,19.714 c-5.445,39.426-26.498,71.311-57.78,87.488c-14.74,7.672-31.27,11.562-49.129,11.562s-34.388-3.89-49.147-11.572 C175.591,299.519,154.537,267.635,149.089,228.189z M248.082,496.165H63.34v-18.378c0.059-1.599,2.927-52.71,94.798-82.292 l0.639-0.206l0.594-0.31c0.337-0.175,7.114-3.72,15.759-8.792l72.952,58.36V496.165z M248.082,424.27L189.4,377.324 c5.406-3.581,9.942-6.894,13.547-9.91c8.128,7.653,24.209,20.055,45.135,22.678V424.27z M211.134,353.223v-18.261 c13.916,5.392,28.951,8.131,44.866,8.131c15.918,0,30.956-2.739,44.866-8.13v18.276c-5.416,5.661-22.578,21.524-44.866,21.524 C233.855,374.763,216.575,358.87,211.134,353.223z M448.661,496.165h-0.001H263.918v-51.618l72.951-58.361 c8.642,5.07,15.422,8.616,15.76,8.792l0.612,0.32l0.658,0.208c26.874,8.513,63.046,24.551,82.76,52.609 c11.315,16.103,11.975,28.987,12.002,29.66V496.165z"/> </g> </g><g> <g> <polygon points="263.918,232.247 263.918,197.938 248.082,197.938 248.082,248.082 277.113,248.082 277.113,232.247 "/> </g> </g><g> <g> <path d="M286.368,269.302c-4.671,0.779-15.802,1.129-20.393-2.762c-0.959-0.812-2.057-2.143-2.057-5.264h-15.835 c0,3.113-1.094,4.443-2.046,5.254c-4.531,3.856-15.718,3.53-20.423,2.768l-2.585,15.623c0.886,0.148,4.584,0.711,9.429,0.711 c7.138,0.001,16.76-1.23,23.542-6.804c6.784,5.574,16.404,6.804,23.542,6.804c4.844,0,8.544-0.563,9.429-0.711L286.368,269.302z"/> </g> </g><g> <g> <rect x="314.062" y="459.216" width="73.897" height="15.835"/> </g> </g><g> <g> <rect x="124.041" y="459.216" width="73.897" height="15.835"/> </g> </g><g> <g> <rect x="224.33" y="84.454" width="63.34" height="15.835"/> </g> </g></symbol><symbol id="phone-call" viewBox="0 0 463.009 463.009"><title>phone-call</title><path d="m462.692,381.085c-1.472-11.126-7.895-20.719-17.62-26.318l-114.226-65.767c-13.99-8.055-31.738-5.71-43.157,5.708l-22.499,22.499c-5.987,5.988-15.459,6.518-22.028,1.231-17.737-14.272-35.201-29.979-51.906-46.685-16.705-16.705-32.412-34.168-46.685-51.906-5.287-6.57-4.758-16.041 1.231-22.029l22.498-22.499c11.418-11.417 13.766-29.163 5.709-43.156l-65.767-114.226c-5.6-9.726-15.192-16.148-26.318-17.62-11.127-1.475-22.06,2.236-29.996,10.172l-33.901,33.902c-23.661,23.662-24.041,66.944-1.07,121.875 22.088,52.818 63.308,110.962 116.065,163.721 52.759,52.758 110.903,93.978 163.722,116.066 27.039,11.307 51.253,16.957 71.697,16.956 21.088,0 38.163-6.013 50.178-18.027l33.901-33.902c7.935-7.936 11.643-18.869 10.172-29.995zm-139.33-79.086l114.226,65.767c5.649,3.252 9.379,8.824 10.233,15.286 0.718,5.423-0.691,10.763-3.885,15.066l-151.805-86.638 6.165-6.165c6.631-6.631 16.941-7.994 25.066-3.316zm-243.406-286.811c6.463,0.855 12.034,4.585 15.286,10.234l65.767,114.226c4.68,8.127 3.316,18.435-3.315,25.065l-5.663,5.663-87.114-151.303c3.561-2.637 7.82-4.069 12.26-4.069 0.921-1.77636e-15 1.85,0.061 2.779,0.184zm328.055,419.187c-18.798,18.798-57.244,18.01-105.48-2.162-51.06-21.352-107.491-61.424-158.901-112.833-51.41-51.41-91.482-107.842-112.834-158.901-20.173-48.237-20.96-86.683-2.162-105.482l25.167-25.168 87.245,151.532-5.851,5.851c-11.415,11.416-12.409,29.488-2.311,42.04 14.609,18.156 30.68,36.024 47.764,53.108 17.086,17.085 34.954,33.156 53.109,47.765 12.55,10.098 30.622,9.105 42.04-2.312l5.338-5.338 152.016,86.759-25.14,25.141z"/></symbol><symbol id="clothes" viewBox="0 0 208.213 208.213"><title>clothes</title><g> <g> <path d="M97.991,182.175c-0.097-1.884-1.7-3.326-3.586-3.232c-1.882,0.099-3.33,1.703-3.231,3.586l0.802,15.445H10.422 l7.248-139.401c6.779-3.104,13.049-6.238,13.049-17.613c0-8.648-3.734-23.243-10.539-29.37l0.422-4.763h8.608 c5.074,4.296,13.158,6.827,21.99,6.827c8.832,0,16.915-2.531,21.99-6.827h8.607l0.422,4.763 c-6.806,6.127-10.54,20.722-10.54,29.37c0,11.385,6.282,14.513,13.07,17.621c0.268,1.703,1.754,2.995,3.548,2.872 c1.883-0.099,3.33-1.703,3.231-3.586l-0.089-1.714c-0.065-1.265-0.826-2.388-1.975-2.92l-1.408-0.647 c-6.755-3.087-9.55-4.364-9.55-11.628c0-8.619,4.203-21.816,9.108-24.938c1.075-0.683,1.681-1.91,1.568-3.18l-0.86-9.73 C88.168,1.352,86.692,0,84.924,0H71.871c-0.898,0-1.758,0.353-2.396,0.983C65.819,4.588,58.817,6.827,51.2,6.827 c-7.617,0-14.619-2.239-18.275-5.844C32.287,0.353,31.426,0,30.529,0H17.476c-1.768,0-3.244,1.352-3.401,3.116l-0.86,9.73 c-0.113,1.27,0.493,2.497,1.568,3.18c4.907,3.12,9.11,16.319,9.11,24.936c0,7.262-2.797,8.538-9.552,11.628l-1.406,0.647 c-1.149,0.532-1.91,1.655-1.975,2.92L3.418,201.211c-0.049,0.934,0.288,1.848,0.932,2.526c0.645,0.678,1.541,1.063,2.476,1.063 h88.747c0.935,0,1.831-0.386,2.476-1.065c0.643-0.678,0.981-1.592,0.932-2.526L97.991,182.175z"/> </g> </g><g> <g> <rect x="37.546" y="40.96" width="37.547" height="6.827"/> </g> </g><g> <g> <path d="M187.733,54.613h-50.198c-0.98,0-1.913,0.42-2.56,1.155c-0.649,0.734-0.949,1.712-0.828,2.683 c0.109,0.86,0.159,1.574,0.159,2.246c0,9.9-8.057,17.956-17.958,17.956S98.393,70.6,98.393,60.698 c0-0.669,0.051-1.384,0.159-2.249c0.121-0.971-0.181-1.947-0.829-2.681c-0.647-0.734-1.579-1.154-2.558-1.154H40.96 c-1.884,0-3.413,1.529-3.413,3.413V87.41c0,1.548,1.039,2.901,2.533,3.299l24.774,6.608v83.589c0,1.884,1.529,3.413,3.413,3.413 h60.303c1.884,0,3.413-1.529,3.413-3.413c0-1.884-1.529-3.413-3.413-3.413H71.68V94.698c0-1.548-1.039-2.901-2.533-3.299 l-24.774-6.608V61.44h47.203c0.393,13.326,11.354,24.042,24.772,24.042c13.42,0,24.381-10.716,24.774-24.042h43.197v23.443 l-21.475,6.548c-1.437,0.439-2.418,1.763-2.418,3.265v35.011c0,1.884,1.529,3.413,3.413,3.413s3.413-1.529,3.413-3.413V97.225 l21.475-6.548c1.437-0.439,2.418-1.763,2.418-3.265V58.027C191.146,56.143,189.617,54.613,187.733,54.613z"/> </g> </g><g> <g> <path d="M68.267,78.655c-1.884,0-3.413,1.529-3.413,3.413v29.385c0,1.884,1.529,3.413,3.413,3.413s3.413-1.529,3.413-3.413V82.068 C71.68,80.184,70.151,78.655,68.267,78.655z"/> </g> </g><g> <g> <path d="M163.84,78.655c-1.884,0-3.413,1.529-3.413,3.413v29.385c0,1.884,1.529,3.413,3.413,3.413s3.413-1.529,3.413-3.413V82.068 C167.253,80.184,165.724,78.655,163.84,78.655z"/> </g> </g><g> <g> <path d="M163.84,126.293c-22.586,0-40.96,18.376-40.96,40.96c0,22.584,18.374,40.96,40.96,40.96s40.96-18.376,40.96-40.96 C204.8,144.669,186.426,126.293,163.84,126.293z M163.84,201.387c-18.821,0-34.133-15.312-34.133-34.133 s15.312-34.133,34.133-34.133s34.133,15.312,34.133,34.133S182.661,201.387,163.84,201.387z"/> </g> </g><g> <g> <path d="M163.84,143.36c-1.884,0-3.413,1.529-3.413,3.413v40.96c0,1.884,1.529,3.413,3.413,3.413s3.413-1.529,3.413-3.413v-40.96 C167.253,144.889,165.724,143.36,163.84,143.36z"/> </g> </g><g> <g> <path d="M184.32,163.84h-40.96c-1.884,0-3.413,1.529-3.413,3.413s1.529,3.413,3.413,3.413h40.96c1.884,0,3.413-1.529,3.413-3.413 S186.204,163.84,184.32,163.84z"/> </g> </g></symbol><symbol id="sports-1" viewBox="0 0 512 512"><title>sports</title><path d="M490.883,60.671c-1.15-1.296-2.341-2.521-3.5-3.613c-7.633-7.447-16.669-13.305-26.583-17.231v-22.76 C460.789,7.646,453.155,0.011,443.733,0H17.067C7.645,0.01,0.009,7.645,0,17.067v477.867c0.009,9.422,7.645,17.057,17.067,17.067 h426.667c9.421-0.011,17.056-7.645,17.067-17.067V190.342c5.947-2.285,11.598-5.275,16.833-8.905 c18.128-12.782,30.226-32.434,33.475-54.375c0.608-3.925,0.906-7.891,0.892-11.863C512.035,95.021,504.5,75.563,490.883,60.671z M444.746,52.737c0.482,0.101,0.921,0.174,1.513,0.334c2.21,0.568,4.388,1.255,6.523,2.06c0.354,0.139,0.718,0.254,1.088,0.344 c3.852,1.515,7.545,3.405,11.027,5.644c0.18,0.182,0.428,0.277,0.625,0.443l-4.337,20.401l-26.558-2.521l-6.483-18.067 L444.746,52.737z M189.958,17.067h80.883V51.2h-80.883V17.067z M136.533,17.067h36.358v42.667c0,4.713,3.82,8.533,8.533,8.533 h97.95c4.713,0,8.533-3.82,8.533-8.533V17.067h36.358v68.267H136.533V17.067z M284.068,102.4 c-9.751,20.828-30.671,34.133-53.668,34.133c-22.997,0-43.918-13.306-53.668-34.133H284.068z M270.842,494.934h-80.883V460.8 h80.883L270.842,494.934z M324.267,494.934h-36.358v-42.667c0-4.713-3.82-8.533-8.533-8.533h-97.95 c-4.713,0-8.533,3.821-8.533,8.533v42.667h-36.358v-68.267h187.733V494.934z M176.732,409.6 c9.751-20.828,30.671-34.133,53.668-34.133s43.918,13.306,53.668,34.133H176.732z M443.733,494.934h-102.4v-76.8 c0-4.713-3.821-8.533-8.533-8.533h-30.433c-10.638-30.651-39.522-51.2-71.967-51.2s-61.328,20.549-71.967,51.2H128 c-4.713,0-8.533,3.82-8.533,8.533v76.8h-102.4v-230.4h137.037c4.33,38.868,37.188,68.268,76.297,68.268s71.966-29.4,76.297-68.268 h137.037V494.934z M171.348,247.467c4.206-29.381,29.372-51.2,59.052-51.2s54.846,21.82,59.052,51.2H171.348z M289.452,264.534 c-4.206,29.381-29.372,51.2-59.052,51.2c-29.68,0-54.846-21.82-59.052-51.2H289.452z M443.733,247.467H306.697 c-4.33-38.868-37.188-68.268-76.297-68.268s-71.966,29.4-76.297,68.268H17.067v-230.4h102.4v76.8c0,4.713,3.82,8.533,8.533,8.533 h30.433c10.638,30.651,39.522,51.2,71.967,51.2c32.444,0,61.328-20.549,71.967-51.2H332.8c4.713,0,8.533-3.821,8.533-8.533v-76.8 h102.4v18.19c-21.69-3.689-43.939,1.777-61.45,15.097c-0.403,0.303-0.73,0.678-1.126,0.987c-0.808,0.496-1.526,1.125-2.124,1.861 c-9.317,7.762-16.755,17.534-21.755,28.582c-0.752,1.046-1.254,2.251-1.466,3.521c-0.581,1.467-1.319,2.854-1.816,4.361 c-6.85,20.624-5.125,43.136,4.787,62.475c0.638,1.275,1.317,2.517,1.971,3.587c9.582,16.631,24.766,29.313,42.837,35.779 c1.325,0.492,2.683,0.946,3.825,1.258c7.62,2.334,15.547,3.514,23.517,3.5c4.287-0.005,8.567-0.347,12.8-1.021V247.467z M405.473,118.024l-23.43-2.289l-8.674-28.317c3.747-7.715,9.021-14.59,15.503-20.208l23.762,1.475l6.448,17.982L405.473,118.024z M417.6,157.684l-14.392,14.931c-9.307-4.497-17.379-11.193-23.518-19.508l2.264-20.235l23.121,2.254L417.6,157.684z M421.338,178.394L421.338,178.394l10.387-10.773c0.173-0.152,0.257-0.362,0.42-0.522l29.449,1.158l0.752,2.648 C449.9,177.921,435.46,180.558,421.338,178.394z M462.796,151.228l-29.93-1.177l-12.731-22.96l13.289-30.619l27.583,2.619 l15.005,28.314L462.796,151.228z M478.893,157.429l12.049-21.75h0.551C488.772,143.691,484.49,151.083,478.893,157.429z M494.674,118.613h-4.002l-14.399-27.17c0.288-0.572,0.531-1.166,0.728-1.776l3.216-15.154 c9.511,11.425,14.719,25.821,14.717,40.687C494.933,116.393,494.736,117.472,494.674,118.613z"/></symbol></svg>